<svg width="259" height="259" viewBox="0 0 259 259" fill="none" xmlns="http://www.w3.org/2000/svg">
<g clip-path="url(#clip0_1_175)">
<path d="M165.717 147.725C161.219 130.752 161.015 117.638 165.165 111.736C169.955 104.924 174.527 101.923 178.945 99.0201C183.141 96.2726 187.479 93.4171 191.451 87.7674C200.537 74.8457 197.747 63.894 182.673 53.2948C167.598 42.6956 156.349 43.7759 147.263 56.6976C143.291 62.3472 142.078 67.3998 140.905 72.2732C139.669 77.4127 138.391 82.7313 133.602 89.5426C129.452 95.445 117.043 99.6906 99.5483 101.2C91.5065 101.904 84.2638 106.047 79.6699 112.58L37.3353 172.789C36.1103 174.532 36.5301 176.94 38.2724 178.165C40.0146 179.39 42.4231 178.97 43.6481 177.228L76.937 129.884L83.2501 134.323L49.9612 181.667C48.7361 183.409 49.1559 185.818 50.8982 187.043C52.6405 188.268 55.0489 187.848 56.2739 186.106L89.5629 138.761L95.8753 143.2L62.5864 190.544C61.3614 192.286 61.7812 194.695 63.5234 195.92C65.2657 197.145 67.6738 196.725 68.8989 194.983L102.188 147.638L108.5 152.077L75.2113 199.421C73.9863 201.163 74.4061 203.572 76.1484 204.797C77.8907 206.022 80.2991 205.602 81.5241 203.86L114.813 156.515L121.126 160.954L87.8366 208.298C86.6116 210.04 87.0314 212.449 88.7736 213.674C90.5159 214.899 92.9243 214.479 94.1494 212.737L127.438 165.393L133.751 169.831L100.462 217.175C99.2368 218.918 99.6566 221.326 101.399 222.551C103.141 223.776 105.55 223.356 106.775 221.614L140.064 174.27L146.376 178.708L113.087 226.052C111.862 227.795 112.282 230.203 114.024 231.428C115.766 232.653 118.175 232.233 119.4 230.491L161.73 170.288C166.324 163.754 167.776 155.531 165.717 147.725Z" fill="#34A853" fill-opacity="0.05"/>
</g>
<defs>
<clipPath id="clip0_1_175">
<rect width="185.203" height="185.203" fill="white" transform="translate(106.922 0.0327148) rotate(35.112)"/>
</clipPath>
</defs>
</svg>
