<svg width="155" height="155" viewBox="0 0 155 155" fill="none" xmlns="http://www.w3.org/2000/svg">
<path d="M108.5 19.1328H86.0973C82.1012 19.0723 82.2223 25.0664 86.0973 25.0664H108.439V28.0332H86.2184C82.1618 28.0332 82.2829 33.9668 86.2184 33.9668H108.5V36.9336V37.0547H86.2184C82.1618 37.0547 82.2829 43.0488 86.2184 43.0488H108.5V46.0156H86.2184C82.2223 46.0156 82.2829 51.9492 86.2184 51.9492H108.5V54.916H86.2184C82.2223 54.916 82.2223 60.9102 86.2184 60.8496H108.5V63.877H86.2184C82.2223 63.8164 82.2223 69.8105 86.2184 69.8105H108.5V72.7773H86.2184C82.2223 72.7773 82.2223 78.7109 86.2184 78.7109H108.5V81.6777H86.2184C82.2223 81.6777 82.2829 87.6719 86.2184 87.6719H108.5V145.494C108.439 154.334 121.941 154.213 121.941 145.494V10.2324C121.941 6.23633 118.611 1.15039 113.101 1.15039L86.0973 1.08984C82.1012 1.15039 82.2223 7.08398 86.0973 7.08398H108.439V10.0508H86.0973C82.1012 10.0508 82.2223 16.0449 86.0973 15.9844H108.439V19.1328H108.5Z" fill="#A84234" fill-opacity="0.05"/>
<path d="M82.6462 135.988C81.8591 140.893 83.5544 149.672 87.0056 152.881C90.6384 156.211 94.9373 151.973 93.1814 148.521C91.365 145.131 89.1248 143.254 91.0017 135.141L82.6462 135.988Z" fill="#A84234" fill-opacity="0.05"/>
<path d="M75.5019 107.471V68.0547L68.0547 3.20898C67.8125 1.45313 66.7832 1.0293 65.7539 1.0293C64.7852 1.0293 63.6953 1.39258 63.5137 3.20898L56.248 68.0547V107.471C42.5039 100.326 32.2109 111.467 32.1504 121.578C32.2109 130.6 38.8711 138.047 48.377 138.047C57.8828 137.986 64.3613 129.691 64.3613 121.578V81.9805H67.3887V121.578C67.3887 130.963 75.0176 137.926 83.1309 137.926C93.3633 137.926 99.8418 130.721 99.8418 121.639C99.9023 111.406 89.2461 100.326 75.5019 107.471ZM48.1953 129.812C43.7148 129.812 40.1426 126.18 40.082 121.699C40.1426 117.279 43.7148 113.646 48.1953 113.646C52.6758 113.646 56.3086 117.219 56.3086 121.699C56.3086 126.18 52.6758 129.812 48.1953 129.812ZM83.7969 129.812C79.3769 129.812 75.7441 126.18 75.7441 121.699C75.7441 117.279 79.3164 113.646 83.7969 113.646C88.2773 113.646 91.9102 117.219 91.9102 121.699C91.9102 126.18 88.3379 129.812 83.7969 129.812Z" fill="#A84234" fill-opacity="0.05"/>
</svg>
